<svg width="226" height="61" viewBox="0 0 226 61" fill="none" xmlns="http://www.w3.org/2000/svg">
<g clip-path="url(#clip0_4_232)">
<path d="M65.5585 32.2761C65.5585 30.0517 65.9212 28.0203 66.6467 26.1817C67.3948 24.3432 68.3697 22.8338 69.5712 21.6536C70.7954 20.4506 72.1784 19.5313 73.72 18.8958C75.2616 18.2376 76.8599 17.9084 78.5149 17.9084C81.7114 17.9084 84.2846 18.9071 86.2343 20.9045C88.184 22.8792 89.1588 25.4781 89.1588 28.7012C89.1588 30.9256 88.7848 32.957 88.0366 34.7955C87.3111 36.634 86.3363 38.1548 85.1121 39.3577C83.9105 40.538 82.5389 41.4573 80.9973 42.1155C79.4784 42.7511 77.8914 43.0688 76.2364 43.0688C73.0399 43.0688 70.4554 42.0701 68.483 40.0727C66.5333 38.0753 65.5585 35.4764 65.5585 32.2761ZM84.3299 28.9736C84.3299 26.9535 83.7858 25.3533 82.6976 24.173C81.6094 22.97 80.1245 22.3685 78.2428 22.3685C76.0211 22.3685 74.1507 23.2991 72.6318 25.1604C71.1128 27.0216 70.3534 29.28 70.3534 31.9356C70.3534 33.9557 70.9088 35.5672 72.0197 36.7702C73.1305 37.9505 74.6041 38.5406 76.4405 38.5406C78.6396 38.5406 80.4986 37.6441 82.0175 35.851C83.5364 34.0578 84.3073 31.7654 84.3299 28.9736ZM95.5456 18.4191H103.401C105.555 18.4191 107.3 19.0433 108.638 20.2917C109.976 21.5174 110.644 23.1176 110.644 25.0923C110.644 27.6344 109.783 29.6545 108.06 31.1525C106.337 32.6279 104.093 33.3769 101.327 33.3996H97.0759L95.1376 42.5581H90.4447L95.5456 18.4191ZM102.313 22.5047H99.4223L97.9261 29.3481H101.293C102.63 29.3481 103.718 29.0076 104.557 28.3267C105.396 27.6458 105.816 26.6811 105.816 25.4327C105.816 24.5248 105.521 23.8098 104.931 23.2878C104.342 22.7658 103.469 22.5047 102.313 22.5047ZM125.567 42.5581H110.536L115.637 18.4191H130.668L129.716 22.8452H119.412L118.221 28.3607H127.573L126.689 32.5484H117.337L116.147 38.1321H126.485L125.567 42.5581ZM150.19 42.5581H145.497L138.526 25.5008L134.921 42.5581H130.262L135.363 18.4191H140.77L147.164 34.5231L150.598 18.4191H155.291L150.19 42.5581ZM170.867 42.5581H155.701L160.802 18.4191H165.494L161.346 38.064H171.82L170.867 42.5581ZM179.225 42.5581H174.464L179.565 18.4191H184.326L179.225 42.5581ZM193.433 38.9832C194.566 38.9832 195.462 38.7109 196.119 38.1661C196.799 37.6214 197.151 36.9064 197.173 36.0212C197.173 34.8182 196.493 33.9217 195.133 33.3315L192.208 32.0377C189.103 30.6532 187.55 28.4969 187.55 25.5689C187.55 23.3445 188.377 21.5174 190.032 20.0874C191.687 18.6575 193.705 17.9425 196.085 17.9425C197.581 17.9425 198.896 18.1808 200.03 18.6575C201.163 19.1341 202.014 19.747 202.58 20.496C203.17 21.245 203.601 21.994 203.873 22.7431C204.145 23.4921 204.281 24.2184 204.281 24.922L199.894 25.6711C199.894 25.3533 199.849 25.0242 199.758 24.6837C199.667 24.3432 199.497 23.9574 199.248 23.5261C198.998 23.0949 198.579 22.7431 197.99 22.4707C197.423 22.1756 196.72 22.0281 195.881 22.0281C194.838 22.0281 193.977 22.3345 193.297 22.9473C192.617 23.5602 192.276 24.2751 192.276 25.0923C192.276 26.2952 192.911 27.1804 194.181 27.7479L196.969 28.9736C200.325 30.4489 202.002 32.6733 202.002 35.6467C202.002 37.6441 201.22 39.3804 199.656 40.8558C198.114 42.3311 196.062 43.0688 193.501 43.0688C191.914 43.0688 190.508 42.8191 189.284 42.3198C188.06 41.8204 187.108 41.1736 186.427 40.3791C185.77 39.562 185.271 38.7222 184.931 37.8597C184.591 36.9745 184.421 36.0779 184.421 35.17C184.421 34.8523 184.444 34.6139 184.489 34.4551L188.876 33.706C188.853 33.9103 188.842 34.1486 188.842 34.421C188.842 35.6694 189.227 36.7362 189.998 37.6214C190.769 38.5066 191.914 38.9605 193.433 38.9832ZM224.704 22.8792H217.699L213.55 42.5581H208.857L213.006 22.8792H205.695L206.647 18.4191H225.656L224.704 22.8792Z" fill="white"/>
<mask id="mask0_4_232" style="mask-type:luminance" maskUnits="userSpaceOnUse" x="63" y="16" width="165" height="29">
<path d="M227.417 16.314H63.7617V44.6861H227.417V16.314Z" fill="white"/>
<path d="M65.5583 32.2761C65.5583 30.0517 65.9211 28.0203 66.6465 26.1817C67.3947 24.3432 68.3695 22.8338 69.5711 21.6536C70.7953 20.4506 72.1782 19.5313 73.7199 18.8958C75.2615 18.2376 76.8598 17.9084 78.5147 17.9084C81.7113 17.9084 84.2845 18.9071 86.2342 20.9045C88.1839 22.8792 89.1587 25.4781 89.1587 28.7012C89.1587 30.9256 88.7846 32.957 88.0365 34.7955C87.311 36.634 86.3362 38.1548 85.112 39.3577C83.9104 40.538 82.5388 41.4573 80.9972 42.1155C79.4782 42.7511 77.8913 43.0688 76.2363 43.0688C73.0397 43.0688 70.4553 42.0701 68.4829 40.0727C66.5332 38.0753 65.5583 35.4764 65.5583 32.2761ZM84.3298 28.9736C84.3298 26.9535 83.7857 25.3533 82.6975 24.173C81.6093 22.97 80.1244 22.3685 78.2427 22.3685C76.0209 22.3685 74.1506 23.2991 72.6316 25.1604C71.1127 27.0216 70.3532 29.28 70.3532 31.9356C70.3532 33.9557 70.9087 35.5672 72.0195 36.7702C73.1304 37.9505 74.604 38.5406 76.4404 38.5406C78.6394 38.5406 80.4984 37.6441 82.0174 35.851C83.5363 34.0578 84.3071 31.7654 84.3298 28.9736ZM95.5455 18.4191H103.401C105.555 18.4191 107.3 19.0433 108.638 20.2917C109.975 21.5174 110.644 23.1176 110.644 25.0923C110.644 27.6344 109.783 29.6545 108.06 31.1525C106.337 32.6279 104.092 33.3769 101.327 33.3996H97.0758L95.1374 42.5581H90.4446L95.5455 18.4191ZM102.313 22.5047H99.4222L97.9259 29.3481H101.293C102.63 29.3481 103.718 29.0076 104.557 28.3267C105.396 27.6458 105.815 26.6811 105.815 25.4327C105.815 24.5248 105.521 23.8098 104.931 23.2878C104.342 22.7658 103.469 22.5047 102.313 22.5047ZM125.567 42.5581H110.536L115.637 18.4191H130.668L129.715 22.8452H119.412L118.221 28.3607H127.573L126.689 32.5484H117.337L116.147 38.1321H126.485L125.567 42.5581ZM150.19 42.5581H145.497L138.526 25.5008L134.921 42.5581H130.262L135.363 18.4191H140.77L147.163 34.5231L150.598 18.4191H155.291L150.19 42.5581ZM170.867 42.5581H155.7L160.801 18.4191H165.494L161.346 38.064H171.819L170.867 42.5581ZM179.225 42.5581H174.464L179.565 18.4191H184.326L179.225 42.5581ZM193.433 38.9832C194.566 38.9832 195.462 38.7109 196.119 38.1661C196.799 37.6214 197.151 36.9064 197.173 36.0212C197.173 34.8182 196.493 33.9217 195.133 33.3315L192.208 32.0377C189.102 30.6532 187.549 28.4969 187.549 25.5689C187.549 23.3445 188.377 21.5174 190.032 20.0874C191.687 18.6575 193.705 17.9425 196.085 17.9425C197.581 17.9425 198.896 18.1808 200.03 18.6575C201.163 19.1341 202.013 19.747 202.58 20.496C203.17 21.245 203.6 21.994 203.872 22.7431C204.145 23.4921 204.281 24.2184 204.281 24.922L199.894 25.6711C199.894 25.3533 199.848 25.0242 199.758 24.6837C199.667 24.3432 199.497 23.9574 199.248 23.5261C198.998 23.0949 198.579 22.7431 197.989 22.4707C197.423 22.1756 196.72 22.0281 195.881 22.0281C194.838 22.0281 193.977 22.3345 193.297 22.9473C192.616 23.5602 192.276 24.2751 192.276 25.0923C192.276 26.2952 192.911 27.1804 194.181 27.7479L196.969 28.9736C200.324 30.4489 202.002 32.6733 202.002 35.6467C202.002 37.6441 201.22 39.3804 199.656 40.8558C198.114 42.3311 196.062 43.0688 193.501 43.0688C191.914 43.0688 190.508 42.8191 189.284 42.3198C188.06 41.8204 187.107 41.1736 186.427 40.3791C185.77 39.562 185.271 38.7222 184.931 37.8597C184.591 36.9745 184.421 36.0779 184.421 35.17C184.421 34.8523 184.444 34.6139 184.489 34.4551L188.876 33.706C188.853 33.9103 188.842 34.1486 188.842 34.421C188.842 35.6694 189.227 36.7362 189.998 37.6214C190.769 38.5066 191.914 38.9605 193.433 38.9832ZM224.704 22.8792H217.699L213.55 42.5581H208.857L213.006 22.8792H205.695L206.647 18.4191H225.656L224.704 22.8792Z" fill="black"/>
</mask>
<g mask="url(#mask0_4_232)">
<path d="M66.6466 26.1818L65.3344 25.6465L65.3316 25.6536L65.3288 25.6605L66.6466 26.1818ZM73.7199 18.8958L74.2598 20.2076L74.2676 20.2042L74.2761 20.2007L73.7199 18.8958ZM86.2342 20.9046L85.2211 21.8961L85.2268 21.9018L86.2342 20.9046ZM88.0366 34.7955L86.7245 34.2603L86.7216 34.2673L86.7188 34.2743L88.0366 34.7955ZM80.9973 42.1155L81.5435 43.4244L81.5484 43.4224L81.5534 43.4204L80.9973 42.1155ZM68.4829 40.0728L67.4696 41.0643L67.4753 41.0701L68.4829 40.0728ZM84.3299 28.9736L85.7468 28.9852V28.9793V28.9736H84.3299ZM82.6976 24.173L81.6476 25.1253L81.6519 25.1303L81.6561 25.1353L82.6976 24.173ZM72.0196 36.7702L70.9789 37.7333L70.9838 37.7382L70.9881 37.7431L72.0196 36.7702ZM66.9753 32.2761C66.9753 30.2079 67.3121 28.3561 67.9644 26.703L65.3288 25.6605C64.5301 27.6845 64.1415 29.8955 64.1415 32.2761H66.9753ZM67.9588 26.717C68.6468 25.0263 69.5223 23.6889 70.5635 22.6662L68.5788 20.641C67.2168 21.9788 66.1427 23.6602 65.3344 25.6465L67.9588 26.717ZM70.5635 22.6662C71.661 21.5875 72.8917 20.7715 74.2598 20.2076L73.1808 17.584C71.4649 18.2912 69.9295 19.3137 68.5788 20.641L70.5635 22.6662ZM74.2761 20.2007C75.6441 19.6165 77.0532 19.3271 78.5148 19.3271V16.4899C76.6664 16.4899 74.879 16.8586 73.1638 17.5909L74.2761 20.2007ZM78.5148 19.3271C81.3904 19.3271 83.5775 20.2124 85.2211 21.8961L87.2473 19.913C84.9916 17.602 82.0323 16.4899 78.5148 16.4899V19.3271ZM85.2268 21.9018C86.8718 23.5682 87.7418 25.7868 87.7418 28.7012H90.5757C90.5757 25.1695 89.496 22.1903 87.2417 19.9073L85.2268 21.9018ZM87.7418 28.7012C87.7418 30.7642 87.3954 32.611 86.7245 34.2603L89.3486 35.3308C90.174 33.303 90.5757 31.087 90.5757 28.7012H87.7418ZM86.7188 34.2743C86.055 35.9558 85.1821 37.301 84.1195 38.3453L86.1046 40.3704C87.4903 39.0087 88.5672 37.3123 89.3543 35.3168L86.7188 34.2743ZM84.1195 38.3453C83.0433 39.4023 81.8198 40.2221 80.4411 40.8106L81.5534 43.4204C83.258 42.6926 84.7776 41.6739 86.1046 40.3704L84.1195 38.3453ZM80.451 40.8067C79.1057 41.3694 77.705 41.6502 76.2364 41.6502V44.4874C78.0777 44.4874 79.851 44.1328 81.5435 43.4244L80.451 40.8067ZM76.2364 41.6502C73.3607 41.6502 71.1588 40.7649 69.4906 39.0754L67.4753 41.0701C69.7517 43.3754 72.7189 44.4874 76.2364 44.4874V41.6502ZM69.4963 39.0812C67.8435 37.388 66.9753 35.1644 66.9753 32.2761H64.1415C64.1415 35.7886 65.223 38.7627 67.4696 41.0643L69.4963 39.0812ZM85.7468 28.9736C85.7468 26.6925 85.1262 24.7159 83.739 23.2108L81.6561 25.1353C82.4454 25.9908 82.9129 27.2144 82.9129 28.9736H85.7468ZM83.7475 23.2207C82.3469 21.6722 80.4539 20.95 78.2427 20.95V23.7872C79.795 23.7872 80.8719 24.2679 81.6476 25.1253L83.7475 23.2207ZM78.2427 20.95C75.5584 20.95 73.2977 22.1022 71.5343 24.2628L73.7291 26.0579C75.0036 24.4962 76.4836 23.7872 78.2427 23.7872V20.95ZM71.5343 24.2628C69.7868 26.4043 68.9364 28.9894 68.9364 31.9356H71.7702C71.7702 29.5706 72.439 27.6389 73.7291 26.0579L71.5343 24.2628ZM68.9364 31.9356C68.9364 34.2255 69.573 36.2105 70.9789 37.7333L73.0603 35.8072C72.2442 34.9241 71.7702 33.686 71.7702 31.9356H68.9364ZM70.9881 37.7431C72.4036 39.2471 74.2711 39.9593 76.4404 39.9593V37.1221C74.9371 37.1221 73.8574 36.6539 73.0511 35.7974L70.9881 37.7431ZM76.4404 39.9593C79.0865 39.9593 81.3309 38.8549 83.0978 36.7685L80.937 34.9334C79.666 36.4333 78.1924 37.1221 76.4404 37.1221V39.9593ZM83.0978 36.7685C84.8704 34.6766 85.722 32.0439 85.7468 28.9852L82.9129 28.962C82.8924 31.4869 82.2023 33.4391 80.937 34.9334L83.0978 36.7685ZM95.5456 18.4192V17.0006H94.3971L94.1591 18.1255L95.5456 18.4192ZM108.638 20.2917L107.672 21.3294L107.677 21.3338L107.682 21.3382L108.638 20.2917ZM108.06 31.1526L108.981 32.2306L108.985 32.2272L108.989 32.2237L108.06 31.1526ZM101.327 33.3996V34.8182H101.332L101.338 34.8182L101.327 33.3996ZM97.0758 33.3996V31.981H95.9274L95.6894 33.1056L97.0758 33.3996ZM95.1375 42.5581V43.9767H96.2859L96.524 42.8522L95.1375 42.5581ZM90.4446 42.5581L89.0582 42.2645L88.6968 43.9767H90.4446V42.5581ZM99.4223 22.5048V21.0861H98.2817L98.0379 22.2014L99.4223 22.5048ZM97.926 29.3481L96.5417 29.0447L96.1655 30.7667H97.926V29.3481ZM95.5456 19.8378H103.401V17.0006H95.5456V19.8378ZM103.401 19.8378C105.264 19.8378 106.642 20.3685 107.672 21.3294L109.604 19.2541C107.959 17.7182 105.845 17.0006 103.401 17.0006V19.8378ZM107.682 21.3382C108.698 22.2698 109.227 23.4766 109.227 25.0923H112.061C112.061 22.7586 111.253 20.765 109.594 19.2453L107.682 21.3382ZM109.227 25.0923C109.227 27.2754 108.507 28.8851 107.131 30.0814L108.989 32.2237C111.059 30.4239 112.061 27.9935 112.061 25.0923H109.227ZM107.139 30.0745C105.722 31.2878 103.823 31.9605 101.315 31.9811L101.338 34.8182C104.362 34.7934 106.952 33.9681 108.981 32.2306L107.139 30.0745ZM101.327 31.981H97.0758V34.8182H101.327V31.981ZM95.6894 33.1056L93.751 42.2641L96.524 42.8522L98.4623 33.6937L95.6894 33.1056ZM95.1375 41.1395H90.4446V43.9767H95.1375V41.1395ZM91.8311 42.8518L96.932 18.7128L94.1591 18.1255L89.0582 42.2645L91.8311 42.8518ZM102.313 21.0861H99.4223V23.9234H102.313V21.0861ZM98.0379 22.2014L96.5417 29.0447L99.3103 29.6515L100.807 22.8081L98.0379 22.2014ZM97.926 30.7667H101.293V27.9295H97.926V30.7667ZM101.293 30.7667C102.875 30.7667 104.303 30.3596 105.45 29.4286L103.665 27.2248C103.134 27.6556 102.385 27.9295 101.293 27.9295V30.7667ZM105.45 29.4286C106.674 28.4348 107.232 27.0346 107.232 25.4328H104.399C104.399 26.3276 104.118 26.8567 103.665 27.2248L105.45 29.4286ZM107.232 25.4328C107.232 24.1869 106.812 23.0589 105.87 22.2253L103.993 24.3504C104.23 24.5609 104.399 24.8628 104.399 25.4328H107.232ZM105.87 22.2253C104.924 21.3867 103.656 21.0861 102.313 21.0861V23.9234C103.282 23.9234 103.76 24.1448 103.993 24.3504L105.87 22.2253ZM125.567 42.5581V43.9767H126.72L126.955 42.8466L125.567 42.5581ZM110.536 42.5581L109.15 42.2645L108.788 43.9767H110.536V42.5581ZM115.637 18.4192V17.0006H114.488L114.251 18.1255L115.637 18.4192ZM130.668 18.4192L132.053 18.7179L132.423 17.0006H130.668V18.4192ZM129.715 22.8452V24.2638H130.86L131.101 23.1439L129.715 22.8452ZM119.412 22.8452V21.4266H118.268L118.027 22.5456L119.412 22.8452ZM118.221 28.3608L116.836 28.0611L116.466 29.7794H118.221V28.3608ZM127.573 28.3608L128.96 28.6541L129.321 26.9421H127.573V28.3608ZM126.689 32.5485V33.9671H127.838L128.075 32.8418L126.689 32.5485ZM117.337 32.5485V31.1299H116.191L115.951 32.2524L117.337 32.5485ZM116.147 38.1321L114.761 37.836L114.396 39.5507H116.147V38.1321ZM126.485 38.1321L127.873 38.4206L128.226 36.7135H126.485V38.1321ZM125.567 41.1395H110.536V43.9767H125.567V41.1395ZM111.922 42.8518L117.023 18.7128L114.251 18.1255L109.15 42.2645L111.922 42.8518ZM115.637 19.8378H130.668V17.0006H115.637V19.8378ZM129.283 18.1205L128.33 22.5465L131.101 23.1439L132.053 18.7179L129.283 18.1205ZM129.715 21.4266H119.412V24.2638H129.715V21.4266ZM118.027 22.5456L116.836 28.0611L119.606 28.6604L120.797 23.1448L118.027 22.5456ZM118.221 29.7794H127.573V26.9421H118.221V29.7794ZM126.187 28.0674L125.303 32.2551L128.075 32.8418L128.96 28.6541L126.187 28.0674ZM126.689 31.1299H117.337V33.9671H126.689V31.1299ZM115.951 32.2524L114.761 37.836L117.533 38.4282L118.723 32.8445L115.951 32.2524ZM116.147 39.5507H126.485V36.7135H116.147V39.5507ZM125.098 37.8436L124.18 42.2697L126.955 42.8466L127.873 38.4206L125.098 37.8436ZM150.19 42.5581V43.9767H151.339L151.577 42.8518L150.19 42.5581ZM145.497 42.5581L144.186 43.0954L144.546 43.9767H145.497V42.5581ZM138.526 25.5008L139.837 24.9636L138.093 20.6958L137.139 25.2072L138.526 25.5008ZM134.921 42.5581V43.9767H136.07L136.308 42.8518L134.921 42.5581ZM130.262 42.5581L128.876 42.2645L128.515 43.9767H130.262V42.5581ZM135.363 18.4192V17.0006H134.215L133.977 18.1255L135.363 18.4192ZM140.77 18.4192L142.087 17.8952L141.732 17.0006H140.77V18.4192ZM147.164 34.5232L145.847 35.0471L147.573 39.3958L148.549 34.8194L147.164 34.5232ZM150.598 18.4192V17.0006H149.452L149.212 18.123L150.598 18.4192ZM155.291 18.4192L156.677 18.7128L157.04 17.0006H155.291V18.4192ZM150.19 41.1395H145.497V43.9767H150.19V41.1395ZM146.809 42.0209L139.837 24.9636L137.215 26.0381L144.186 43.0954L146.809 42.0209ZM137.139 25.2072L133.535 42.2645L136.308 42.8518L139.912 25.7945L137.139 25.2072ZM134.921 41.1395H130.262V43.9767H134.921V41.1395ZM131.649 42.8518L136.75 18.7128L133.977 18.1255L128.876 42.2645L131.649 42.8518ZM135.363 19.8378H140.77V17.0006H135.363V19.8378ZM139.454 18.9431L145.847 35.0471L148.481 33.9992L142.087 17.8952L139.454 18.9431ZM148.549 34.8194L151.984 18.7154L149.212 18.123L145.778 34.227L148.549 34.8194ZM150.598 19.8378H155.291V17.0006H150.598V19.8378ZM153.905 18.1255L148.804 42.2645L151.577 42.8518L156.677 18.7128L153.905 18.1255ZM170.867 42.5581V43.9767H172.016L172.254 42.8525L170.867 42.5581ZM155.701 42.5581L154.315 42.2645L153.953 43.9767H155.701V42.5581ZM160.801 18.4192V17.0006H159.653L159.416 18.1255L160.801 18.4192ZM165.494 18.4192L166.881 18.7126L167.242 17.0006H165.494V18.4192ZM161.346 38.064L159.96 37.7706L159.598 39.4826H161.346V38.064ZM171.82 38.064L173.206 38.3584L173.569 36.6454H171.82V38.064ZM170.867 41.1395H155.701V43.9767H170.867V41.1395ZM157.087 42.8518L162.188 18.7128L159.416 18.1255L154.315 42.2645L157.087 42.8518ZM160.801 19.8378H165.494V17.0006H160.801V19.8378ZM164.109 18.1257L159.96 37.7706L162.732 38.3574L166.881 18.7126L164.109 18.1257ZM161.346 39.4826H171.82V36.6454H161.346V39.4826ZM170.434 37.7696L169.482 42.2638L172.254 42.8525L173.206 38.3584L170.434 37.7696ZM179.225 42.5581V43.9767H180.374L180.611 42.8518L179.225 42.5581ZM174.464 42.5581L173.078 42.2645L172.716 43.9767H174.464V42.5581ZM179.565 18.4192V17.0006H178.417L178.179 18.1255L179.565 18.4192ZM184.326 18.4192L185.712 18.7128L186.074 17.0006H184.326V18.4192ZM179.225 41.1395H174.464V43.9767H179.225V41.1395ZM175.85 42.8518L180.951 18.7128L178.179 18.1255L173.078 42.2645L175.85 42.8518ZM179.565 19.8378H184.326V17.0006H179.565V19.8378ZM182.94 18.1255L177.839 42.2645L180.611 42.8518L185.712 18.7128L182.94 18.1255ZM193.433 38.9833L193.412 40.4017L193.422 40.4019H193.433V38.9833ZM196.119 38.1661L195.234 37.0584L195.225 37.0657L195.216 37.0733L196.119 38.1661ZM197.173 36.0212L198.59 36.0576V36.0394V36.0212H197.173ZM195.133 33.3315L194.56 34.6291L194.565 34.6312L194.57 34.6332L195.133 33.3315ZM192.208 32.0378L191.632 33.3337L191.636 33.3354L192.208 32.0378ZM202.58 20.496L201.451 21.3526L201.459 21.3633L201.467 21.3739L202.58 20.496ZM204.281 24.9221L204.519 26.3204L205.698 26.1192V24.9221H204.281ZM199.894 25.6711H198.477V27.3521L200.133 27.0695L199.894 25.6711ZM197.989 22.4707L197.336 23.7293L197.365 23.7448L197.396 23.7587L197.989 22.4707ZM194.181 27.7479L193.603 29.0433L193.611 29.0469L194.181 27.7479ZM199.656 40.8558L198.684 39.8232L198.681 39.8268L198.677 39.8304L199.656 40.8558ZM186.427 40.3792L185.324 41.2691L185.338 41.2859L185.352 41.3024L186.427 40.3792ZM184.931 37.8597L183.609 38.369L183.611 38.3748L183.613 38.3806L184.931 37.8597ZM184.489 34.4551L184.251 33.0567L183.372 33.2068L183.127 34.0654L184.489 34.4551ZM188.876 33.7061L190.284 33.8627L190.492 31.991L188.638 32.3077L188.876 33.7061ZM193.433 40.4019C194.787 40.4019 196.038 40.0747 197.023 39.259L195.216 37.0733C194.886 37.347 194.346 37.5647 193.433 37.5647V40.4019ZM197.005 39.2739C198.016 38.4633 198.557 37.3534 198.59 36.0576L195.757 35.9848C195.745 36.4594 195.582 36.7795 195.234 37.0584L197.005 39.2739ZM198.59 36.0212C198.59 35.1325 198.332 34.301 197.792 33.5885C197.265 32.8942 196.531 32.3919 195.697 32.0299L194.57 34.6332C195.095 34.8613 195.382 35.1024 195.535 35.3046C195.675 35.4887 195.756 35.707 195.756 36.0212H198.59ZM195.706 32.0339L192.782 30.7402L191.636 33.3354L194.56 34.6291L195.706 32.0339ZM192.785 30.7418C191.398 30.1235 190.458 29.3777 189.864 28.5525C189.279 27.7404 188.966 26.7668 188.966 25.5689H186.133C186.133 27.2991 186.597 28.8676 187.565 30.2118C188.524 31.5428 189.914 32.5675 191.632 33.3337L192.785 30.7418ZM188.966 25.5689C188.966 23.7493 189.62 22.3169 190.958 21.1614L189.107 19.0135C187.134 20.7179 186.133 22.9398 186.133 25.5689H188.966ZM190.958 21.1614C192.332 19.9742 194.012 19.3611 196.085 19.3611V16.5239C193.398 16.5239 191.042 17.3408 189.107 19.0135L190.958 21.1614ZM196.085 19.3611C197.433 19.3611 198.555 19.5758 199.481 19.9655L200.579 17.3495C199.238 16.7859 197.73 16.5239 196.085 16.5239V19.3611ZM199.481 19.9655C200.454 20.3746 201.075 20.8551 201.451 21.3526L203.71 19.6394C202.953 18.6389 201.873 17.8937 200.579 17.3495L199.481 19.9655ZM201.467 21.3739C201.982 22.027 202.329 22.6454 202.541 23.2279L205.204 22.2583C204.872 21.3427 204.359 20.4631 203.693 19.6181L201.467 21.3739ZM202.541 23.2279C202.764 23.8419 202.864 24.4042 202.864 24.9221H205.698C205.698 24.0327 205.525 23.1423 205.204 22.2583L202.541 23.2279ZM204.043 23.5237L199.656 24.2727L200.133 27.0695L204.519 26.3204L204.043 23.5237ZM201.311 25.6711C201.311 25.2173 201.246 24.7651 201.127 24.3182L198.389 25.0492C198.451 25.2833 198.477 25.4893 198.477 25.6711H201.311ZM201.127 24.3182C200.994 23.8184 200.762 23.3141 200.474 22.8154L198.022 24.2369C198.232 24.6007 198.341 24.8681 198.389 25.0492L201.127 24.3182ZM200.474 22.8154C200.04 22.064 199.358 21.5405 198.583 21.1827L197.396 23.7587C197.8 23.9456 197.958 24.1258 198.022 24.2369L200.474 22.8154ZM198.643 21.2121C197.822 20.7842 196.879 20.6095 195.881 20.6095V23.4467C196.561 23.4467 197.025 23.5671 197.336 23.7293L198.643 21.2121ZM195.881 20.6095C194.541 20.6095 193.326 21.0128 192.349 21.8929L194.245 24.0018C194.628 23.6562 195.136 23.4467 195.881 23.4467V20.6095ZM192.349 21.8929C191.411 22.7385 190.859 23.8219 190.859 25.0923H193.693C193.693 24.7285 193.823 24.3818 194.245 24.0018L192.349 21.8929ZM190.859 25.0923C190.859 25.9583 191.093 26.777 191.602 27.4858C192.101 28.1817 192.802 28.685 193.603 29.0433L194.759 26.4525C194.291 26.2433 194.04 26.0204 193.904 25.8311C193.777 25.6546 193.693 25.4293 193.693 25.0923H190.859ZM193.611 29.0469L196.4 30.2725L197.54 27.6747L194.75 26.449L193.611 29.0469ZM196.4 30.2725C197.924 30.9425 198.959 31.7364 199.613 32.6032C200.254 33.4523 200.585 34.4466 200.585 35.6467H203.419C203.419 33.8734 202.913 32.2689 201.875 30.8935C200.851 29.536 199.371 28.4801 197.54 27.6747L196.4 30.2725ZM200.585 35.6467C200.585 37.2207 199.989 38.5929 198.684 39.8232L200.628 41.8884C202.451 40.1681 203.419 38.0675 203.419 35.6467H200.585ZM198.677 39.8304C197.45 41.0041 195.776 41.6502 193.501 41.6502V44.4874C196.349 44.4874 198.779 43.6582 200.635 41.8813L198.677 39.8304ZM193.501 41.6502C192.061 41.6502 190.843 41.4238 189.819 41.006L188.75 43.6336C190.174 44.2146 191.766 44.4874 193.501 44.4874V41.6502ZM189.819 41.006C188.75 40.5699 188.003 40.0396 187.503 39.4559L185.352 41.3024C186.213 42.3076 187.37 43.071 188.75 43.6336L189.819 41.006ZM187.531 39.4892C186.952 38.7692 186.531 38.052 186.249 37.3389L183.613 38.3806C184.012 39.3925 184.589 40.3549 185.324 41.2691L187.531 39.4892ZM186.254 37.3505C185.973 36.6204 185.838 35.8962 185.838 35.1701H183.004C183.004 36.2598 183.209 37.3286 183.609 38.369L186.254 37.3505ZM185.838 35.1701C185.838 35.0425 185.843 34.9502 185.848 34.8875C185.855 34.8199 185.861 34.8128 185.851 34.8448L183.127 34.0654C183.026 34.4193 183.004 34.8182 183.004 35.1701H185.838ZM184.728 35.8535L189.115 35.1044L188.638 32.3077L184.251 33.0567L184.728 35.8535ZM187.468 33.5494C187.438 33.8193 187.425 34.112 187.425 34.421H190.259C190.259 34.1853 190.269 34.0014 190.284 33.8627L187.468 33.5494ZM187.425 34.421C187.425 35.9887 187.919 37.3929 188.93 38.5536L191.066 36.6892C190.536 36.0795 190.259 35.3501 190.259 34.421H187.425ZM188.93 38.5536C190.038 39.8259 191.617 40.3749 193.412 40.4017L193.454 37.5648C192.211 37.5462 191.5 37.1873 191.066 36.6892L188.93 38.5536ZM224.704 22.8793V24.2979H225.85L226.09 23.1758L224.704 22.8793ZM217.699 22.8793V21.4607H216.55L216.312 22.5863L217.699 22.8793ZM213.55 42.5581V43.9767H214.699L214.937 42.8511L213.55 42.5581ZM208.857 42.5581L207.471 42.2652L207.11 43.9767H208.857V42.5581ZM213.006 22.8793L214.393 23.1722L214.753 21.4607H213.006V22.8793ZM205.695 22.8793L204.309 22.5828L203.943 24.2979H205.695V22.8793ZM206.647 18.4192V17.0006H205.501L205.261 18.1227L206.647 18.4192ZM225.656 18.4192L227.042 18.7157L227.408 17.0006H225.656V18.4192ZM224.704 21.4607H217.699V24.2979H224.704V21.4607ZM216.312 22.5863L212.164 42.2652L214.937 42.8511L219.085 23.1722L216.312 22.5863ZM213.55 41.1395H208.857V43.9767H213.55V41.1395ZM210.244 42.8511L214.393 23.1722L211.62 22.5863L207.471 42.2652L210.244 42.8511ZM213.006 21.4607H205.695V24.2979H213.006V21.4607ZM207.08 23.1758L208.033 18.7157L205.261 18.1227L204.309 22.5828L207.08 23.1758ZM206.647 19.8378H225.656V17.0006H206.647V19.8378ZM224.271 18.1227L223.318 22.5828L226.09 23.1758L227.042 18.7157L224.271 18.1227Z" fill="black"/>
</g>
<path d="M56.8863 30.4979C56.6276 33.4757 55.779 36.3736 54.389 39.0257C52.8912 41.8954 50.8325 44.4409 48.3326 46.5138C44.1293 50.0605 38.8015 52.0275 33.2825 52.0699C32.557 52.0699 31.8436 52.035 31.1425 51.965C30.4257 51.8948 29.7134 51.7853 29.0089 51.637C19.2281 49.669 12.4704 40.9445 13.3734 30.4913C14.2764 20.0382 22.5093 11.33 32.6342 9.34895C34.0652 9.06459 35.5211 8.92181 36.9805 8.92259C41.6151 8.87613 46.123 10.4222 49.7384 13.298C54.6371 17.2437 57.4883 23.4789 56.8863 30.4979Z" fill="black" stroke="black" stroke-width="2" stroke-linejoin="round"/>
<path d="M54.3891 39.0224C52.8917 41.8934 50.8329 44.44 48.3327 46.5138H37.9663L38.608 39.0224H54.3891Z" fill="#5FA2FF" stroke="black" stroke-width="2" stroke-linejoin="round"/>
<path d="M56.8863 30.4979H38.7667L40.2387 13.3046H49.7351C54.6371 17.2437 57.4884 23.4789 56.8863 30.4979Z" fill="#5FA2FF" stroke="black" stroke-width="2" stroke-linejoin="round"/>
<path d="M29.0057 51.6436C29.7102 51.7919 30.4225 51.9014 31.1391 51.9716H28.9792L29.0057 51.6436Z" fill="white" stroke="black" stroke-width="2" stroke-linejoin="round"/>
<path d="M45.2216 45.451C54.2872 36.8636 55.1877 23.2082 47.2328 14.951C39.278 6.69379 25.4802 6.96153 16.4146 15.549C7.34905 24.1365 6.44861 37.7917 14.4034 46.0489C22.3583 54.3062 36.156 54.0385 45.2216 45.451Z" fill="#5FA2FF" stroke="black" stroke-width="2" stroke-linejoin="round"/>
<path d="M36.9773 8.92914C35.5179 8.92836 34.062 9.07121 32.631 9.35557L32.6674 8.92914H36.9773Z" fill="white" stroke="black" stroke-width="2" stroke-linejoin="round"/>
<path d="M14.9855 31.3001C14.9855 29.6318 15.2575 28.1082 15.8016 26.7293C16.3627 25.3504 17.0939 24.2184 17.995 23.3332C18.9132 22.431 19.9504 21.7415 21.1066 21.2649C22.2628 20.7712 23.4615 20.5244 24.7028 20.5244C27.1002 20.5244 29.0301 21.2734 30.4923 22.7714C31.9546 24.2524 32.6857 26.2016 32.6857 28.6189C32.6857 30.2872 32.4052 31.8108 31.8441 33.1897C31.3 34.5685 30.5688 35.7091 29.6507 36.6113C28.7495 37.4965 27.7208 38.186 26.5646 38.6797C25.4254 39.1563 24.2352 39.3946 22.994 39.3946C20.5965 39.3946 18.6581 38.6456 17.1789 37.1476C15.7166 35.6495 14.9855 33.7004 14.9855 31.3001ZM29.0641 28.8232C29.0641 27.3081 28.656 26.108 27.8398 25.2228C27.0237 24.3205 25.91 23.8694 24.4987 23.8694C22.8324 23.8694 21.4297 24.5674 20.2905 25.9633C19.1512 27.3592 18.5816 29.053 18.5816 31.0447C18.5816 32.5598 18.9982 33.7684 19.8314 34.6707C20.6645 35.5559 21.7697 35.9985 23.147 35.9985C24.7963 35.9985 26.1905 35.3261 27.3298 33.9812C28.469 32.6364 29.0471 30.9171 29.0641 28.8232ZM45.0253 39.0116H33.6502L37.4759 20.9074H40.9955L37.884 35.641H45.7394L45.0253 39.0116Z" fill="white"/>
<mask id="mask1_4_232" style="mask-type:luminance" maskUnits="userSpaceOnUse" x="14" y="19" width="33" height="22">
<path d="M46.7587 19.1512H14.1693V40.4303H46.7587V19.1512Z" fill="white"/>
<path d="M14.9855 31.3001C14.9855 29.6319 15.2575 28.1083 15.8016 26.7294C16.3627 25.3505 17.0939 24.2185 17.995 23.3333C18.9132 22.431 19.9504 21.7416 21.1066 21.2649C22.2628 20.7713 23.4615 20.5244 24.7028 20.5244C27.1002 20.5244 29.0301 21.2734 30.4923 22.7715C31.9546 24.2525 32.6857 26.2017 32.6857 28.619C32.6857 30.2873 32.4052 31.8108 31.8441 33.1897C31.3 34.5686 30.5688 35.7092 29.6507 36.6114C28.7495 37.4966 27.7208 38.186 26.5646 38.6797C25.4254 39.1564 24.2352 39.3947 22.994 39.3947C20.5965 39.3947 18.6581 38.6457 17.1789 37.1476C15.7166 35.6496 14.9855 33.7004 14.9855 31.3001ZM29.0641 28.8233C29.0641 27.3082 28.656 26.108 27.8398 25.2228C27.0237 24.3206 25.91 23.8695 24.4987 23.8695C22.8324 23.8695 21.4297 24.5674 20.2905 25.9633C19.1512 27.3593 18.5816 29.0531 18.5816 31.0448C18.5816 32.5599 18.9982 33.7685 19.8314 34.6707C20.6645 35.5559 21.7697 35.9986 23.147 35.9986C24.7963 35.9986 26.1905 35.3261 27.3298 33.9813C28.469 32.6365 29.0471 30.9171 29.0641 28.8233ZM45.0253 39.0117H33.6502L37.4759 20.9074H40.9955L37.884 35.6411H45.7394L45.0253 39.0117Z" fill="black"/>
</mask>
<g mask="url(#mask1_4_232)">
<path d="M15.8016 26.7293L15.1455 26.4617L15.1426 26.4687L15.8016 26.7293ZM21.1066 21.2649L21.3764 21.9208L21.3845 21.9173L21.1066 21.2649ZM30.4923 22.7714L29.9856 23.2672L29.9884 23.2701L30.4923 22.7714ZM31.8441 33.1897L31.1879 32.922L31.1851 32.9291L31.8441 33.1897ZM26.5646 38.6797L26.8378 39.3341L26.8425 39.3321L26.5646 38.6797ZM17.1788 37.1476L16.6722 37.6433L16.6751 37.6463L17.1788 37.1476ZM29.064 28.8232L29.7725 28.8289V28.8232H29.064ZM27.8398 25.2228L27.3147 25.6989L27.3192 25.7039L27.8398 25.2228ZM19.8313 34.6707L19.3111 35.1522L19.3157 35.1571L19.8313 34.6707ZM15.6939 31.3001C15.6939 29.7099 15.953 28.2761 16.4605 26.9899L15.1426 26.4687C14.562 27.9403 14.277 29.5537 14.277 31.3001H15.6939ZM16.4577 26.997C16.9887 25.692 17.6702 24.646 18.4911 23.8395L17.4989 22.8269C16.5175 23.7908 15.7367 25.0089 15.1455 26.4617L16.4577 26.997ZM18.4911 23.8395C19.346 22.9994 20.307 22.3616 21.3764 21.9208L20.8369 20.609C19.5937 21.1215 18.4803 21.8625 17.4989 22.8269L18.4911 23.8395ZM21.3845 21.9173C22.454 21.4606 23.5583 21.2337 24.7027 21.2337V19.8151C23.3647 19.8151 22.0716 20.0818 20.8286 20.6125L21.3845 21.9173ZM24.7027 21.2337C26.9398 21.2337 28.6764 21.926 29.9856 23.2672L30.999 22.2757C29.3836 20.6208 27.2606 19.8151 24.7027 19.8151V21.2337ZM29.9884 23.2701C31.2985 24.597 31.9772 26.3559 31.9772 28.6189H33.3942C33.3942 26.0473 32.6106 23.9079 30.9962 22.2728L29.9884 23.2701ZM31.9772 28.6189C31.9772 30.2065 31.7106 31.6378 31.1879 32.922L32.5002 33.4573C33.0997 31.9838 33.3942 30.3679 33.3942 28.6189H31.9772ZM31.1851 32.9291C30.672 34.2294 29.9918 35.2822 29.1544 36.1051L30.1468 37.1176C31.1456 36.1361 31.9279 34.9077 32.503 33.4503L31.1851 32.9291ZM29.1544 36.1051C28.3159 36.9287 27.3613 37.5684 26.2866 38.0273L26.8425 39.3321C28.0803 38.8036 29.1829 38.0645 30.1468 37.1176L29.1544 36.1051ZM26.2914 38.0252C25.2392 38.4655 24.1418 38.6853 22.9939 38.6853V40.1039C24.3285 40.1039 25.6116 39.8472 26.8378 39.3341L26.2914 38.0252ZM22.9939 38.6853C20.757 38.6853 19.0099 37.993 17.6826 36.6489L16.6751 37.6463C18.3064 39.2983 20.4359 40.1039 22.9939 40.1039V38.6853ZM17.6855 36.6518C16.3717 35.3059 15.6939 33.5443 15.6939 31.3001H14.277C14.277 33.8564 15.0615 35.9932 16.6722 37.6433L17.6855 36.6518ZM29.7725 28.8232C29.7725 27.1777 29.3262 25.7893 28.3604 24.7417L27.3192 25.7039C27.9857 26.4267 28.3556 27.4386 28.3556 28.8232H29.7725ZM28.3649 24.7466C27.3924 23.6716 26.0747 23.1601 24.4987 23.1601V24.5787C25.7452 24.5787 26.6549 24.9695 27.3147 25.6989L28.3649 24.7466ZM24.4987 23.1601C22.6009 23.1601 21.0032 23.9689 19.7418 25.5145L20.8391 26.4121C21.8561 25.1659 23.0638 24.5787 24.4987 24.5787V23.1601ZM19.7418 25.5145C18.4882 27.0506 17.8731 28.9078 17.8731 31.0447H19.2901C19.2901 29.1983 19.8142 27.6678 20.8391 26.4121L19.7418 25.5145ZM17.8731 31.0447C17.8731 32.6947 18.3303 34.0901 19.3111 35.1522L20.3516 34.1891C19.666 33.4469 19.2901 32.4249 19.2901 31.0447H17.8731ZM19.3157 35.1571C20.3012 36.2042 21.6032 36.7078 23.1469 36.7078V35.2892C21.9362 35.2892 21.0278 34.9076 20.347 34.1842L19.3157 35.1571ZM23.1469 36.7078C25.0199 36.7078 26.6066 35.9315 27.8701 34.44L26.7894 33.5225C25.7744 34.7207 24.5726 35.2892 23.1469 35.2892V36.7078ZM27.8701 34.44C29.1358 32.9457 29.7544 31.0563 29.7725 28.8289L28.3556 28.8175C28.3397 30.7778 27.8021 32.3271 26.7894 33.5225L27.8701 34.44ZM45.0252 39.0116V39.7209H45.5992L45.7183 39.1588L45.0252 39.0116ZM33.6501 39.0116L32.957 38.8648L32.776 39.7209H33.6501V39.0116ZM37.4758 20.9074V20.1981H36.9016L36.7827 20.7606L37.4758 20.9074ZM40.9954 20.9074L41.6886 21.0541L41.8694 20.1981H40.9954V20.9074ZM37.8839 35.641L37.1908 35.4943L37.01 36.3503H37.8839V35.641ZM45.7394 35.641L46.4324 35.7882L46.6138 34.9317H45.7394V35.641ZM45.0252 38.3023H33.6501V39.7209H45.0252V38.3023ZM34.3432 39.1584L38.1689 21.0542L36.7827 20.7606L32.957 38.8648L34.3432 39.1584ZM37.4758 21.6167H40.9954V20.1981H37.4758V21.6167ZM40.3023 20.7606L37.1908 35.4943L38.577 35.7878L41.6886 21.0541L40.3023 20.7606ZM37.8839 36.3503H45.7394V34.9317H37.8839V36.3503ZM45.0463 35.4938L44.3321 38.8644L45.7183 39.1588L46.4324 35.7882L45.0463 35.4938Z" fill="black"/>
</g>
</g>
<defs>
<clipPath id="clip0_4_232">
<rect width="226" height="61" fill="white"/>
</clipPath>
</defs>
</svg>
